# xmcd CD Database Entry
#
# Track frame offsets:
# 150
# 17730
# 35016
# 55153
#
# Disc length: 1077 seconds
#
# Revision: 2
# Processed by: cddbd v1.4PL0 Copyright (c) Steve Scherf et al.
# Submitted via: tcd 2.0b
#
DISCID=2c043304
DTITLE=Nickelback - Staind
DYEAR=1900
DGENRE=
TTITLE0=Too Bad
TTITLE1=Remind Me
TTITLE2=Its Been A While
TTITLE3=Outside
EXTD=
EXTT0=
EXTT1=
EXTT2=
EXTT3=
PLAYORDER=
